<svg width="224" height="224" viewBox="0 0 224 224" fill="none" xmlns="http://www.w3.org/2000/svg">
<path d="M112 0C50.15 0 0 50.15 0 112C0 173.85 50.15 224 112 224C173.85 224 224 173.85 224 112C224 50.15 173.85 0 112 0ZM153.35 154.55L136.85 154.475L112 124.85L87.175 154.45L70.65 154.525C69.55 154.525 68.65 153.65 68.65 152.525C68.65 152.05 68.825 151.6 69.125 151.225L101.65 112.475L69.125 73.75C68.8229 73.3836 68.6553 72.9249 68.65 72.45C68.65 71.35 69.55 70.45 70.65 70.45L87.175 70.525L112 100.15L136.825 70.55L153.325 70.475C154.425 70.475 155.325 71.35 155.325 72.475C155.325 72.95 155.15 73.4 154.85 73.775L122.375 112.5L154.875 151.25C155.175 151.625 155.35 152.075 155.35 152.55C155.35 153.65 154.45 154.55 153.35 154.55Z" fill="#CD4F40"/>
</svg>
